# xmcd CD database file
#
# Track frame offsets:
#	150
#	16663
#	32135
#	47963
#	67649
#	81787
#	106483
#	121621
#	142387
#	159866
#	196495
#	218161
#	232247
#
# Disc length: 3433 seconds
#
# Revision: 0
# Processed by: cddbd v1.5.2PL0 Copyright (c) Steve Scherf et al.
# Submitted via: CDex 1.51
#
DISCID=ad0d670d
DTITLE=Various Artist - Come hear. Finland. Finnish Moosic 2006.
DYEAR=2006
DGENRE=Jazz
TTITLE0=Trio Töykeät - End Of The First Set
TTITLE1=The Five Corners Quintet feat. Okou - Blue Cycles
TTITLE2=Värttinä - Riena
TTITLE3=Kimmo Pohjonen Kluster - Ohimo
TTITLE4=Alamaailman Vasarat - Astiatehdas
TTITLE5=Maria Kalaniemi - Kevään Kurjet
TTITLE6=Frigg - Mäenpään Heikin Valssi
TTITLE7=Kvalda - Saatto
TTITLE8=Lenni-Kalle Taipale Trio - Jazzarin Mopo Keulii
TTITLE9=Ilmiliekki - ICO
TTITLE10=UMO Jazz Orchestra - Simeoni (Short version)
TTITLE11=Semmarit - Taina
TTITLE12=Kriya - Käin Minä
EXTD=YEAR: 2006
EXTT0=
EXTT1=
EXTT2=
EXTT3=
EXTT4=
EXTT5=
EXTT6=
EXTT7=
EXTT8=
EXTT9=
EXTT10=
EXTT11=
EXTT12=
PLAYORDER=
